<?xml version="1.0" encoding="UTF-8" standalone="no"?>
<!-- Created with Inkscape (http://www.inkscape.org/) -->

<svg
   xmlns:dc="http://purl.org/dc/elements/1.1/"
   xmlns:cc="http://creativecommons.org/ns#"
   xmlns:rdf="http://www.w3.org/1999/02/22-rdf-syntax-ns#"
   xmlns:svg="http://www.w3.org/2000/svg"
   xmlns="http://www.w3.org/2000/svg"
   xmlns:sodipodi="http://sodipodi.sourceforge.net/DTD/sodipodi-0.dtd"
   xmlns:inkscape="http://www.inkscape.org/namespaces/inkscape"
   id="svg3039"
   version="1.1"
   inkscape:version="0.48.0 r9654"
   width="100"
   height="100"
   sodipodi:docname="weather-icon.svg">
  <metadata
     id="metadata3045">
    <rdf:RDF>
      <cc:Work
         rdf:about="">
        <dc:format>image/svg+xml</dc:format>
        <dc:type
           rdf:resource="http://purl.org/dc/dcmitype/StillImage" />
      </cc:Work>
    </rdf:RDF>
  </metadata>
  <defs
     id="defs3043" />
  <sodipodi:namedview
     pagecolor="#ffffff"
     bordercolor="#666666"
     borderopacity="1"
     objecttolerance="10"
     gridtolerance="10"
     guidetolerance="10"
     inkscape:pageopacity="0"
     inkscape:pageshadow="2"
     inkscape:window-width="1022"
     inkscape:window-height="724"
     id="namedview3041"
     showgrid="true"
     inkscape:zoom="2.8"
     inkscape:cx="60.504451"
     inkscape:cy="78.571429"
     inkscape:window-x="0"
     inkscape:window-y="0"
     inkscape:window-maximized="1"
     inkscape:current-layer="svg3039"
     inkscape:snap-global="false">
    <inkscape:grid
       type="xygrid"
       id="grid3909" />
  </sodipodi:namedview>
  <path
     style="fill:#ffffff;fill-opacity:1"
     d="M 6.3209673,99.112632 C 0.10566729,96.047512 -2.2714286e-5,95.238462 -2.2714286e-5,50.725922 -2.2714286e-5,6.0126076 0.09067729,5.3343406 6.4783873,2.3031986 c 4.9835797,-2.36486403 82.0596067,-2.36486403 87.0431867,0 6.38767,3.031142 6.47842,3.709409 6.47842,48.4227234 0,44.71332 -0.0908,45.39159 -6.47842,48.42273 -4.96425,2.355698 -82.415687,2.323708 -87.2006067,-0.036 z"
     id="path3962"
     inkscape:connector-curvature="0" />
  <path
     style="fill:#000000"
     d="M 6.6781281,98.743849 C 0.46283314,95.678732 0.35714314,94.869679 0.35714314,50.357143 c 0,-44.7133181 0.09074,-45.3915851 6.47840196,-48.4227271 4.9835799,-2.36486391 82.0596119,-2.36486391 87.0431919,0 6.387663,3.031142 6.478413,3.709409 6.478413,48.4227271 0,44.713317 -0.0908,45.391585 -6.478413,48.422727 -4.96425,2.3557 -82.415684,2.32371 -87.2006089,-0.03602 z M 92.885087,97.162458 c 5.37101,-2.447198 5.47206,-3.311473 5.47206,-46.805315 0,-43.4938421 -0.10105,-44.3581171 -5.47206,-46.8053151 -4.14569,-1.888902 -81.689293,-1.679729 -85.3829189,0.230319 -5.033768,2.603063 -5.147688,3.648094 -5.10959,46.8720491 0.0379,42.99493 0.09867,43.549472 5.074636,46.30744 3.2871199,1.821911 81.4566129,2.005691 85.4178729,0.200822 z M 49.010597,80.357143 c -2.44489,-2.905589 -2.7953,-3 -11.13435,-3 -7.80816,0 -8.83861,-0.228592 -11.06456,-2.454545 -2.83619,-2.836195 -3.1352,-6.128666 -0.85255,-9.387616 2.37757,-3.394457 1.18141,-3.588514 -4.469316,-0.725072 -2.786405,1.411978 -5.313731,2.567233 -5.61628,2.567233 -0.478116,0 4.106037,-9.819344 5.089898,-10.902662 0.201133,-0.221465 1.304658,0.791035 2.452278,2.25 2.14909,2.732119 3.94143,3.456992 3.94143,1.594024 0,-0.582251 -1.4625,-2.878524 -3.25,-5.102829 -3.037184,-3.779364 -3.250004,-4.550048 -3.250004,-11.769204 0,-6.871881 0.301339,-8.120089 2.728594,-11.30238 8.28388,-10.860736 24.29194,-11.20193 31.65827,-0.674763 1.743,2.49091 3.65478,3.937254 5.74135,4.343579 1.72053,0.335043 4.25911,1.657242 5.64131,2.938221 1.3822,1.280979 4.2495,2.605241 6.37178,2.942804 4.19094,0.666596 9.3587,5.362793 9.3587,8.504707 0,0.984469 1.07572,3.248012 2.3905,5.030095 1.48855,2.017616 2.65817,5.382392 3.09989,8.917848 0.39016,3.122733 1.33943,6.577219 2.10949,7.676634 1.97047,2.81323 1.74149,5.850224 -0.67246,8.919067 l -2.07258,2.634859 -17.83853,0 -17.83853,0 -2.52433,-3 z m 38.81656,0.03314 c 2.22382,-2.457296 2.30588,-6.992623 0.15499,-8.565396 -0.89375,-0.653526 -1.625,-2.515112 -1.625,-4.136857 0,-4.550055 -2.15131,-6.731635 -6.63283,-6.726176 -2.87328,0.0035 -4.34666,-0.601687 -5.73281,-2.354734 -1.38574,-1.752537 -2.67187,-2.28106 -5,-2.054711 -2.72723,0.26515 -3.17499,0.725778 -3.44708,3.546148 -0.17378,1.80121 0.38162,4.232718 1.25,5.472506 2.39393,3.417814 1.96251,7.326443 -1.07214,9.7135 -2.08447,1.639639 -4.06892,2.07258 -9.5,2.07258 -3.77583,0 -6.86514,0.302067 -6.86514,0.671259 0,0.369193 0.74474,1.494193 1.65498,2.5 1.4774,1.6325 3.44598,1.828741 18.34502,1.828741 15.3263,0 16.83546,-0.16071 18.47001,-1.966864 z m -22.92456,-6.487685 c 1.35,-1.35 2.45455,-2.954584 2.45455,-3.565742 0,-2.256789 -2.19594,-5.118505 -3.53375,-4.605138 -1.08592,0.416705 -1.18149,0.0066 -0.44806,-1.922441 1.84096,-4.842088 -2.56405,-10.327171 -7.29919,-9.088902 -1.39933,0.365933 -2.81797,-0.256995 -4.35002,-1.910103 -1.43228,-1.545457 -3.37474,-2.453129 -5.24981,-2.453129 -2.92419,0 -6.11917,2.167284 -6.11917,4.150884 0,0.602781 -1.2224,0.739544 -3.04064,0.34019 -4.36936,-0.959671 -7.95936,1.612732 -7.95936,5.703238 0,1.731514 -0.73125,3.956229 -1.625,4.943811 -2.33247,2.57735 -2.04047,6.904594 0.61078,9.051449 1.94869,1.577954 4.28193,1.810428 18.17045,1.810428 15.58496,0 15.98854,-0.05387 18.38922,-2.454545 z M 24.357147,61.483901 c 0,-0.928907 -2.18058,-3.126758 -3.102179,-3.126758 -0.550388,0 -2.897825,5.324238 -2.897825,6.572579 0,0.150772 1.35,-0.399337 3,-1.222466 1.650004,-0.823128 3.000004,-1.823638 3.000004,-2.223355 z m 61.30668,-2.061993 c -0.27834,-1.064379 -1.36121,-2.709124 -2.40638,-3.654988 -1.04517,-0.945864 -1.9003,-2.809623 -1.9003,-4.141688 0,-3.645904 -5.12993,-8.268089 -9.17633,-8.268089 -2.38747,0 -4.11389,-0.830356 -6.09874,-2.933308 -4.22188,-4.473089 -10.5175,-4.489096 -15.25464,-0.03879 -1.62084,1.522705 -2.91537,1.898493 -4.85928,1.410602 -5.43628,-1.364417 -11.61101,3.693975 -11.61101,9.511836 0,2.724453 3.61787,2.736376 5.8397,0.01925 0.91316,-1.116728 3.31474,-2.295242 5.33683,-2.618921 3.07507,-0.49223 4.10497,-0.160066 6.29545,2.030415 1.5471,1.547099 3.73704,2.61892 5.35096,2.61892 1.50263,0 3.72433,0.695027 4.93713,1.544505 1.65275,1.15763 2.69396,1.282872 4.15677,0.5 2.96879,-1.588851 4.6511,-1.278933 7.90079,1.455495 1.74637,1.469478 4.22692,2.5 6.0177,2.5 1.67565,0 3.32475,0.45 3.66467,1 1.07289,1.735987 2.33445,1.082941 1.80668,-0.935235 z m -52.7221,-7.395031 c 0.0609,-0.643354 0.17933,-2.147619 0.2631,-3.342811 0.0838,-1.195192 1.53693,-3.557692 3.22924,-5.25 2.48915,-2.489152 3.9047,-3.076923 7.41026,-3.076923 3.00335,0 5.57632,-0.81381 8.38325,-2.651558 l 4.04992,-2.651558 -2.04439,-2.871081 c -5.60957,-7.87791 -19.48185,-9.178768 -26.75788,-2.509191 -3.13138,2.870381 -6.06864,9.358388 -6.096122,13.465507 -0.02468,3.689045 2.245802,9.751287 4.645082,12.402464 1.51393,1.672874 1.71674,1.658689 4.19876,-0.293667 1.4344,-1.128297 2.65785,-2.577828 2.71878,-3.221182 z M 14.357143,46.648294 c -0.825,-0.303025 -3.075,-1.213643 -4.9999999,-2.023596 l -3.5,-1.472643 3.5,-1.254605 c 8.4231549,-3.019352 7.9999999,-3.092997 7.9999999,1.392305 0,4.091045 -0.248452,4.36919 -3,3.358539 z m 2,-3.239131 c 0,-2.841269 -0.108595,-2.910125 -3,-1.902175 -4.4100229,1.537342 -3.7245599,2.72661 2.75,4.771208 0.1375,0.04342 0.25,-1.247644 0.25,-2.869033 z m 1.719183,-18.55202 c -1.483599,-3.025 -2.487311,-5.5 -2.230472,-5.5 0.25684,0 2.86583,1.176505 5.797755,2.614457 l 5.330778,2.614456 -2.88555,2.885544 c -1.58705,1.587048 -2.982182,2.885543 -3.100299,2.885543 -0.118118,0 -1.428613,-2.475 -2.912212,-5.5 z m 5.080821,2.3 c 1.79979,-1.799797 1.49289,-2.507402 -1.800004,-4.150113 -1.65,-0.823129 -3,-1.373238 -3,-1.222466 0,1.248341 2.347437,6.572579 2.897825,6.572579 0.386196,0 1.242179,-0.54 1.902179,-1.2 z m 31.80085,0.305272 -2.77332,-2.894728 5.33623,-2.459226 c 2.93493,-1.352575 5.45233,-2.371355 5.59422,-2.263956 0.43629,0.330238 -4.22128,10.463965 -4.82089,10.48907 -0.3096,0.01296 -1.81091,-1.27906 -3.33624,-2.87116 z m 4.87347,-2.055612 c 2.11498,-4.089936 1.99048,-4.238952 -1.9655,-2.352475 -3.29064,1.569194 -3.39662,1.769316 -1.84502,3.483821 2.1011,2.321686 2.01106,2.34842 3.81052,-1.131346 z m -24.47432,-4.427536 c 0,-0.207832 0.60856,-1.895332 1.35236,-3.75 0.7438,-1.854668 1.69436,-4.272124 2.11236,-5.372124 0.66576,-1.752011 0.98486,-1.504022 2.57347,2 2.90121,6.399222 2.60206,7.5 -2.03819,7.5 -2.2,0 -4,-0.170044 -4,-0.377876 z m 6.44642,-2.872124 c -1.49168,-4.87584 -2.24224,-5.41715 -3.37611,-2.4349 -1.55266,4.083736 -1.36055,4.6849 1.49707,4.6849 2.19977,0 2.46883,-0.322176 1.87904,-2.25 z"
     id="path3068"
     inkscape:connector-curvature="0" />
</svg>
