<?xml version="1.0" encoding="UTF-8" standalone="no"?>
<!-- Created with Inkscape (http://www.inkscape.org/) -->

<svg
   xmlns:dc="http://purl.org/dc/elements/1.1/"
   xmlns:cc="http://creativecommons.org/ns#"
   xmlns:rdf="http://www.w3.org/1999/02/22-rdf-syntax-ns#"
   xmlns:svg="http://www.w3.org/2000/svg"
   xmlns="http://www.w3.org/2000/svg"
   xmlns:xlink="http://www.w3.org/1999/xlink"
   xmlns:sodipodi="http://sodipodi.sourceforge.net/DTD/sodipodi-0.dtd"
   xmlns:inkscape="http://www.inkscape.org/namespaces/inkscape"
   width="48px"
   height="48px"
   id="svg1306"
   sodipodi:version="0.32"
   inkscape:version="0.48.4 r9939"
   sodipodi:docname="condition_clouds.svg"
   inkscape:output_extension="org.inkscape.output.svg.inkscape"
   version="1.1">
  <defs
     id="defs1308">
    <inkscape:perspective
       sodipodi:type="inkscape:persp3d"
       inkscape:vp_x="0 : 24 : 1"
       inkscape:vp_y="0 : 1000 : 0"
       inkscape:vp_z="48 : 24 : 1"
       inkscape:persp3d-origin="24 : 16 : 1"
       id="perspective108" />
    <linearGradient
       inkscape:collect="always"
       xlink:href="#linearGradient6538"
       id="linearGradient6724"
       gradientUnits="userSpaceOnUse"
       x1="284.80219"
       y1="-441.23294"
       x2="288.89954"
       y2="-436.83109" />
    <linearGradient
       inkscape:collect="always"
       xlink:href="#linearGradient6527"
       id="linearGradient6720"
       gradientUnits="userSpaceOnUse"
       x1="275.94193"
       y1="-437.10501"
       x2="279.97546"
       y2="-431.91833" />
    <linearGradient
       inkscape:collect="always"
       xlink:href="#linearGradient6538"
       id="linearGradient6718"
       gradientUnits="userSpaceOnUse"
       x1="285.94086"
       y1="-439.93900"
       x2="289.39124"
       y2="-436.44290" />
    <linearGradient
       inkscape:collect="always"
       xlink:href="#linearGradient6513"
       id="linearGradient6716"
       gradientUnits="userSpaceOnUse"
       x1="286.51172"
       y1="-441.29074"
       x2="289.85379"
       y2="-436.14453" />
    <linearGradient
       inkscape:collect="always"
       xlink:href="#linearGradient6497"
       id="linearGradient6714"
       gradientUnits="userSpaceOnUse"
       x1="287.51730"
       y1="-439.75281"
       x2="289.67633"
       y2="-436.32199" />
    <linearGradient
       inkscape:collect="always"
       xlink:href="#linearGradient6470"
       id="linearGradient6712"
       gradientUnits="userSpaceOnUse"
       x1="271.02170"
       y1="-441.05182"
       x2="285.02859"
       y2="-431.96991" />
    <linearGradient
       inkscape:collect="always"
       xlink:href="#linearGradient6538"
       id="linearGradient6839"
       gradientUnits="userSpaceOnUse"
       x1="284.80219"
       y1="-441.23294"
       x2="288.89954"
       y2="-436.83109" />
    <linearGradient
       inkscape:collect="always"
       id="linearGradient6527">
      <stop
         style="stop-color:#ffffff;stop-opacity:1;"
         offset="0"
         id="stop6530" />
      <stop
         style="stop-color:#ffffff;stop-opacity:0;"
         offset="1"
         id="stop6532" />
    </linearGradient>
    <linearGradient
       inkscape:collect="always"
       xlink:href="#linearGradient6527"
       id="linearGradient6835"
       gradientUnits="userSpaceOnUse"
       x1="275.94193"
       y1="-437.10501"
       x2="279.97546"
       y2="-431.91833" />
    <linearGradient
       inkscape:collect="always"
       id="linearGradient6538">
      <stop
         style="stop-color:#ffffff;stop-opacity:1;"
         offset="0"
         id="stop6540" />
      <stop
         style="stop-color:#ffffff;stop-opacity:0;"
         offset="1"
         id="stop6542" />
    </linearGradient>
    <linearGradient
       inkscape:collect="always"
       xlink:href="#linearGradient6538"
       id="linearGradient6833"
       gradientUnits="userSpaceOnUse"
       x1="285.94086"
       y1="-439.93900"
       x2="289.39124"
       y2="-436.44290" />
    <linearGradient
       inkscape:collect="always"
       id="linearGradient6513">
      <stop
         style="stop-color:#ffffff;stop-opacity:1;"
         offset="0"
         id="stop6515" />
      <stop
         style="stop-color:#ffffff;stop-opacity:0;"
         offset="1"
         id="stop6517" />
    </linearGradient>
    <linearGradient
       inkscape:collect="always"
       xlink:href="#linearGradient6513"
       id="linearGradient6831"
       gradientUnits="userSpaceOnUse"
       x1="286.51172"
       y1="-441.29074"
       x2="289.85379"
       y2="-436.14453" />
    <linearGradient
       inkscape:collect="always"
       id="linearGradient6497">
      <stop
         style="stop-color:#ffffff;stop-opacity:1;"
         offset="0"
         id="stop6499" />
      <stop
         style="stop-color:#ffffff;stop-opacity:0;"
         offset="1"
         id="stop6501" />
    </linearGradient>
    <linearGradient
       inkscape:collect="always"
       xlink:href="#linearGradient6497"
       id="linearGradient6829"
       gradientUnits="userSpaceOnUse"
       x1="287.51730"
       y1="-439.75281"
       x2="289.67633"
       y2="-436.32199" />
    <linearGradient
       inkscape:collect="always"
       id="linearGradient6470">
      <stop
         style="stop-color:#ffffff;stop-opacity:1;"
         offset="0"
         id="stop6472" />
      <stop
         style="stop-color:#ffffff;stop-opacity:0;"
         offset="1"
         id="stop6474" />
    </linearGradient>
    <linearGradient
       inkscape:collect="always"
       xlink:href="#linearGradient6470"
       id="linearGradient6827"
       gradientUnits="userSpaceOnUse"
       x1="271.02170"
       y1="-441.05182"
       x2="285.02859"
       y2="-431.96991" />
    <linearGradient
       id="linearGradient4083">
      <stop
         id="stop4085"
         offset="0"
         style="stop-color:#ffffff;stop-opacity:0;" />
      <stop
         style="stop-color:#ffffff;stop-opacity:0;"
         offset="0.75"
         id="stop4089" />
      <stop
         id="stop4087"
         offset="1"
         style="stop-color:#ffffff;stop-opacity:1;" />
    </linearGradient>
    <linearGradient
       id="linearGradient4032">
      <stop
         id="stop4034"
         offset="0"
         style="stop-color:#fff7c2;stop-opacity:0.63829786" />
      <stop
         style="stop-color:#fcaf3e;stop-opacity:0.18348624;"
         offset="0.59394139"
         id="stop4036" />
      <stop
         id="stop4038"
         offset="0.83850551"
         style="stop-color:#fcaf3e;stop-opacity:0.50458717;" />
      <stop
         id="stop4040"
         offset="1"
         style="stop-color:#fcaf3e;stop-opacity:1;" />
    </linearGradient>
    <linearGradient
       id="linearGradient4026">
      <stop
         id="stop4028"
         offset="0"
         style="stop-color:#fff9c6;stop-opacity:1" />
      <stop
         style="stop-color:#fff28c;stop-opacity:1;"
         offset="0.54166669"
         id="stop4042" />
      <stop
         id="stop4030"
         offset="1"
         style="stop-color:#ffea85;stop-opacity:1;" />
    </linearGradient>
    <linearGradient
       inkscape:collect="always"
       xlink:href="#linearGradient4026"
       id="linearGradient3168"
       gradientUnits="userSpaceOnUse"
       x1="-28.968945"
       y1="-25.326815"
       x2="-37.19698"
       y2="-9.5590506" />
    <radialGradient
       inkscape:collect="always"
       xlink:href="#linearGradient4032"
       id="radialGradient4020"
       cx="-33.519073"
       cy="-22.113297"
       fx="-33.519073"
       fy="-22.113297"
       r="9.5"
       gradientUnits="userSpaceOnUse"
       gradientTransform="matrix(0.487739,1.292402,-1.10267,0.497242,-41.77393,32.41492)" />
    <radialGradient
       inkscape:collect="always"
       xlink:href="#linearGradient4083"
       id="radialGradient4081"
       cx="23.99999"
       cy="23.381506"
       fx="23.99999"
       fy="23.381506"
       r="19.141981"
       gradientTransform="matrix(1.006701,0,0,1.007522,-0.160816,0.426981)"
       gradientUnits="userSpaceOnUse" />
    <radialGradient
       inkscape:collect="always"
       xlink:href="#linearGradient4083"
       id="radialGradient3284"
       gradientUnits="userSpaceOnUse"
       gradientTransform="matrix(1.006701,0,0,1.007522,-0.160816,0.426981)"
       cx="23.99999"
       cy="23.381506"
       fx="23.99999"
       fy="23.381506"
       r="19.141981" />
    <radialGradient
       inkscape:collect="always"
       xlink:href="#linearGradient4083"
       id="radialGradient3287"
       gradientUnits="userSpaceOnUse"
       gradientTransform="matrix(1.006701,0,0,1.007522,-0.160816,0.426981)"
       cx="23.99999"
       cy="23.381506"
       fx="23.99999"
       fy="23.381506"
       r="19.141981" />
    <radialGradient
       inkscape:collect="always"
       xlink:href="#linearGradient4032"
       id="radialGradient3290"
       gradientUnits="userSpaceOnUse"
       gradientTransform="matrix(0.487739,1.292402,-1.10267,0.497242,-41.77393,32.41492)"
       cx="-33.519073"
       cy="-22.113297"
       fx="-33.519073"
       fy="-22.113297"
       r="9.5" />
    <linearGradient
       inkscape:collect="always"
       xlink:href="#linearGradient4026"
       id="linearGradient3292"
       gradientUnits="userSpaceOnUse"
       x1="-28.968945"
       y1="-25.326815"
       x2="-37.19698"
       y2="-9.5590506" />
    <linearGradient
       inkscape:collect="always"
       xlink:href="#linearGradient6527"
       id="linearGradient3325"
       gradientUnits="userSpaceOnUse"
       x1="275.94193"
       y1="-437.10501"
       x2="279.97546"
       y2="-431.91833" />
    <radialGradient
       inkscape:collect="always"
       xlink:href="#linearGradient4032"
       id="radialGradient3343"
       gradientUnits="userSpaceOnUse"
       gradientTransform="matrix(0.487739,1.292402,-1.10267,0.497242,-41.77393,32.41492)"
       cx="-33.519073"
       cy="-22.113297"
       fx="-33.519073"
       fy="-22.113297"
       r="9.5" />
    <linearGradient
       inkscape:collect="always"
       xlink:href="#linearGradient4026"
       id="linearGradient3345"
       gradientUnits="userSpaceOnUse"
       x1="-28.968945"
       y1="-25.326815"
       x2="-37.19698"
       y2="-9.5590506" />
    <linearGradient
       inkscape:collect="always"
       xlink:href="#linearGradient6538"
       id="linearGradient3350"
       gradientUnits="userSpaceOnUse"
       x1="284.80219"
       y1="-441.23294"
       x2="288.89954"
       y2="-436.83109" />
    <linearGradient
       inkscape:collect="always"
       xlink:href="#linearGradient6527"
       id="linearGradient3354"
       gradientUnits="userSpaceOnUse"
       x1="275.94193"
       y1="-437.10501"
       x2="279.97546"
       y2="-431.91833" />
    <linearGradient
       inkscape:collect="always"
       xlink:href="#linearGradient6513"
       id="linearGradient3364"
       gradientUnits="userSpaceOnUse"
       x1="286.51172"
       y1="-441.29074"
       x2="289.85379"
       y2="-436.14453" />
    <linearGradient
       inkscape:collect="always"
       xlink:href="#linearGradient6497"
       id="linearGradient3368"
       gradientUnits="userSpaceOnUse"
       x1="287.51730"
       y1="-439.75281"
       x2="289.67633"
       y2="-436.32199" />
  </defs>
  <sodipodi:namedview
     id="base"
     pagecolor="#ffffff"
     bordercolor="#666666"
     borderopacity="1.0"
     inkscape:pageopacity="0.0"
     inkscape:pageshadow="2"
     inkscape:zoom="18.645833"
     inkscape:cx="12.73743"
     inkscape:cy="24"
     inkscape:current-layer="layer1"
     showgrid="true"
     inkscape:grid-bbox="true"
     inkscape:document-units="px"
     inkscape:window-width="1855"
     inkscape:window-height="1056"
     inkscape:window-x="65"
     inkscape:window-y="24"
     inkscape:showpageshadow="false"
     inkscape:window-maximized="1" />
  <metadata
     id="metadata1311">
    <rdf:RDF>
      <cc:Work
         rdf:about="">
        <dc:format>image/svg+xml</dc:format>
        <dc:type
           rdf:resource="http://purl.org/dc/dcmitype/StillImage" />
        <dc:title>weather-clear</dc:title>
        <dc:date>January 2006</dc:date>
        <dc:creator>
          <cc:Agent>
            <dc:title>Ryan Collier (pseudo)</dc:title>
          </cc:Agent>
        </dc:creator>
        <dc:publisher>
          <cc:Agent>
            <dc:title>http://www.tango-project.org</dc:title>
          </cc:Agent>
        </dc:publisher>
        <dc:source>http://www.pseudocode.org</dc:source>
        <dc:subject>
          <rdf:Bag>
            <rdf:li>weather</rdf:li>
            <rdf:li>applet</rdf:li>
            <rdf:li>notification</rdf:li>
          </rdf:Bag>
        </dc:subject>
        <cc:license
           rdf:resource="http://creativecommons.org/licenses/publicdomain/" />
        <dc:contributor>
          <cc:Agent>
            <dc:title>Garrett LeSage</dc:title>
          </cc:Agent>
        </dc:contributor>
      </cc:Work>
      <cc:License
         rdf:about="http://creativecommons.org/licenses/publicdomain/">
        <cc:permits
           rdf:resource="http://creativecommons.org/ns#Reproduction" />
        <cc:permits
           rdf:resource="http://creativecommons.org/ns#Distribution" />
        <cc:permits
           rdf:resource="http://creativecommons.org/ns#DerivativeWorks" />
      </cc:License>
    </rdf:RDF>
  </metadata>
  <g
     id="layer1"
     inkscape:label="Layer 1"
     inkscape:groupmode="layer">
    <path
       inkscape:connector-curvature="0"
       style="fill:#808080;fill-opacity:1;stroke:#000000;stroke-width:1;stroke-linecap:butt;stroke-linejoin:miter;stroke-miterlimit:2;stroke-opacity:1;stroke-dasharray:none;stroke-dashoffset:0"
       d="m 16.51,14.4855 c -2.27083,0 -4.10991,1.55028 -4.71875,3.625 -0.69323,-0.36383 -1.44451,-0.625 -2.28125,-0.625 -2.76,0 -5.00001,2.23999 -5,5 0,0.57893 0.16252,1.1077 0.34375,1.625 -1.37347,0.77074 -2.34375,2.189 -2.34375,3.875 0,2.484 2.016,4.50001 4.5,4.5 0.17713,0 18.82287,0 19,0 2.48399,0 4.5,-2.016 4.5,-4.5 0,-1.686 -0.97028,-3.10426 -2.34375,-3.875 0.18124,-0.51729 0.34375,-1.04608 0.34375,-1.625 0,-2.76 -2.24,-4.99999 -5,-5 -0.83674,0 -1.58802,0.26117 -2.28125,0.625 -0.60884,-2.07472 -2.44792,-3.625 -4.71875,-3.625 z"
       id="path6785"
       sodipodi:nodetypes="ccsscsssscsscc" />
    <path
       inkscape:connector-curvature="0"
       style="fill:#c4c5c2;fill-opacity:1;stroke:none"
       d="m 16.51,14.9855 c -2.18972,0 -3.7236,1.33577 -4.39555,3.84352 C 11.44599,18.4854 10.56686,17.99567 9.76,17.99567 c -2.71651,0 -4.75514,1.93882 -4.75513,4.54554 0,0.54677 0.26721,1.33344 0.44196,1.82201 C 4.1224,25.09117 3.01,26.25372 3.01,27.73577 c 0,2.34605 1.54617,4.25009 4.33928,4.25009 0.17081,0 18.15064,0 18.32144,0 2.77101,0 4.33928,-1.90404 4.33928,-4.25009 0,-1.59237 -1.1124,-2.66669 -2.43683,-3.39464 0.17476,-0.48856 0.46407,-1.25316 0.46407,-1.79992 0,-2.60671 -2.11581,-4.56763 -4.77723,-4.56764 -0.80687,0 -1.64181,0.48974 -2.31027,0.83336 C 20.30089,16.38539 18.69973,14.9855 16.51,14.9855 z"
       id="path6787"
       sodipodi:nodetypes="ccsscsssscsscc" />
    <path
       sodipodi:type="arc"
       style="fill:#c4c5c2;fill-opacity:1;stroke:none"
       id="path6791"
       sodipodi:cx="288.375"
       sodipodi:cy="-437.59375"
       sodipodi:rx="3.3125"
       sodipodi:ry="3.3125"
       d="m 291.6875,-437.59375 a 3.3125,3.3125 0 1 1 -6.625,0 3.3125,3.3125 0 1 1 6.625,0 z"
       transform="matrix(1.056604,0,0,1.056604,-288.18818,481.84881)" />
    <path
       sodipodi:type="arc"
       style="fill:url(#linearGradient3368);fill-opacity:1;stroke:none"
       id="path6793"
       sodipodi:cx="288.375"
       sodipodi:cy="-437.59375"
       sodipodi:rx="3.3125"
       sodipodi:ry="3.3125"
       d="m 291.6875,-437.59375 a 3.3125,3.3125 0 1 1 -6.625,0 3.3125,3.3125 0 1 1 6.625,0 z"
       transform="matrix(1.056604,0,0,1.056604,-288.18818,481.84881)" />
    <path
       sodipodi:type="arc"
       style="fill:#c4c5c2;fill-opacity:1;stroke:none"
       id="path6801"
       sodipodi:cx="288.375"
       sodipodi:cy="-437.59375"
       sodipodi:rx="3.3125"
       sodipodi:ry="3.3125"
       d="m 291.6875,-437.59375 a 3.3125,3.3125 0 1 1 -6.625,0 3.3125,3.3125 0 1 1 6.625,0 z"
       transform="matrix(1.056604,0,0,1.056604,-281.18811,484.84871)" />
    <path
       sodipodi:type="arc"
       style="fill:url(#linearGradient3364);fill-opacity:1;stroke:none"
       id="path6803"
       sodipodi:cx="288.375"
       sodipodi:cy="-437.59375"
       sodipodi:rx="3.3125"
       sodipodi:ry="3.3125"
       d="m 291.6875,-437.59375 a 3.3125,3.3125 0 1 1 -6.625,0 3.3125,3.3125 0 1 1 6.625,0 z"
       transform="matrix(1.056604,0,0,1.056604,-281.18818,484.84881)" />
    <path
       inkscape:connector-curvature="0"
       style="fill:#888a85;fill-opacity:1;fill-rule:evenodd;stroke:none"
       d="m 28.9664,22.65154 c -0.002,2.68456 -3.26926,3.71395 -3.26926,3.71395 0,0 2.34874,-1.62595 2.33685,-3.70501 0,0 0.93241,-0.009 0.93241,-0.009 z"
       id="path6819"
       sodipodi:nodetypes="ccss" />
    <path
       sodipodi:type="arc"
       style="fill:#c4c5c2;fill-opacity:1;stroke:none"
       id="path6823"
       sodipodi:cx="288.375"
       sodipodi:cy="-437.59375"
       sodipodi:rx="3.3125"
       sodipodi:ry="3.3125"
       d="m 291.6875,-437.59375 a 3.3125,3.3125 0 1 1 -6.625,0 3.3125,3.3125 0 1 1 6.625,0 z"
       transform="matrix(1.2075473,0,0,1.2075473,-328.21645,555.40079)" />
    <path
       sodipodi:type="arc"
       style="fill:url(#linearGradient3350);fill-opacity:1;stroke:none"
       id="path6825"
       sodipodi:cx="288.375"
       sodipodi:cy="-437.59375"
       sodipodi:rx="3.3125"
       sodipodi:ry="3.3125"
       d="m 291.6875,-437.59375 a 3.3125,3.3125 0 1 1 -6.625,0 3.3125,3.3125 0 1 1 6.625,0 z"
       transform="matrix(1.2075473,0,0,1.2075473,-328.21645,555.40079)" />
    <path
       style="opacity:0.7;fill:none;stroke:url(#radialGradient3287);stroke-width:0.84646249;stroke-linecap:square;stroke-linejoin:miter;stroke-miterlimit:4;stroke-opacity:1;stroke-dasharray:none"
       d="M 24,5.25 22.65625,9.0625 C 23.098888,9.0231486 23.547187,9 24,9 c 0.452813,0 0.901112,0.023149 1.34375,0.0625 L 24,5.25 z M 10.78125,10.75 12.5,14.375 c 0.571538,-0.680911 1.224004,-1.336255 1.90625,-1.90625 L 10.78125,10.75 z m 26.46875,0 -3.625,1.71875 c 0.679675,0.569439 1.336811,1.226575 1.90625,1.90625 L 37.25,10.75 z M 9.0625,22.625 5.28125,23.96875 9.0625,25.3125 C 9.024981,24.880146 9,24.442031 9,24 9,23.536406 9.0212735,23.077908 9.0625,22.625 z m 29.875,0.03125 C 38.976851,23.098888 39,23.547187 39,24 c 0,0.452813 -0.02315,0.901112 -0.0625,1.34375 L 42.71875,24 38.9375,22.65625 z m -3.40625,10.9375 c -0.572957,0.68579 -1.221265,1.363613 -1.90625,1.9375 L 37.25,37.25 35.53125,33.59375 z M 12.5,33.625 10.78125,37.21875 14.375,35.5 C 13.702932,34.935884 13.064116,34.297068 12.5,33.625 z M 22.65625,38.9375 24,42.71875 25.34375,38.9375 C 24.901112,38.976851 24.452813,39 24,39 23.547187,39 23.098888,38.97685 22.65625,38.9375 z"
       id="path7494"
       inkscape:connector-curvature="0" />
    <path
       sodipodi:type="arc"
       style="fill:#ffffff;fill-opacity:1;stroke:#000000;stroke-width:0.75991178000000004;stroke-linecap:square;stroke-linejoin:miter;stroke-miterlimit:4;stroke-opacity:1;stroke-dasharray:none"
       id="path7498"
       sodipodi:cx="-32"
       sodipodi:cy="-17.5"
       sodipodi:rx="9.5"
       sodipodi:ry="9.5"
       d="m -22.5,-17.5 a 9.5,9.5 0 1 1 -19,0 9.5,9.5 0 1 1 19,0 z"
       transform="matrix(0.778062,-1.061285,1.061287,0.778062,67.47952,3.641324)"
       inkscape:r_cx="true"
       inkscape:r_cy="true" />
    <path
       sodipodi:type="arc"
       style="fill:url(#radialGradient3343);fill-opacity:1;stroke:none"
       id="path7500"
       sodipodi:cx="-32"
       sodipodi:cy="-17.5"
       sodipodi:rx="9.5"
       sodipodi:ry="9.5"
       d="m -22.5,-17.5 a 9.5,9.5 0 1 1 -19,0 9.5,9.5 0 1 1 19,0 z"
       transform="matrix(1.244257,-0.167707,0.216642,1.251844,67.61648,40.527)"
       inkscape:r_cx="true"
       inkscape:r_cy="true" />
    <path
       sodipodi:type="arc"
       style="fill:#ffffff;stroke:#ffffff;stroke-width:0.82601946999999998;stroke-linecap:square;stroke-linejoin:miter;stroke-miterlimit:4;stroke-opacity:1;stroke-dasharray:none"
       id="path7502"
       sodipodi:cx="-32"
       sodipodi:cy="-17.5"
       sodipodi:rx="9.5"
       sodipodi:ry="9.5"
       d="m -22.5,-17.5 a 9.5,9.5 0 1 1 -19,0 9.5,9.5 0 1 1 19,0 z"
       transform="matrix(0.715791,-0.976349,0.97635,0.715792,64.00044,5.269544)"
       inkscape:r_cx="true"
       inkscape:r_cy="true" />
    <path
       style="opacity:1;fill:#ffffff;fill-opacity:1;stroke:#000000;stroke-width:0.73732894999999998;stroke-linecap:square;stroke-linejoin:miter;stroke-miterlimit:4;stroke-opacity:1;stroke-dasharray:none"
       d="m 24.094865,2.5 -2.375,6.6875 C 22.493899,9.0641318 23.286271,9 24.094865,9 c 0.808594,0 1.600966,0.064132 2.375,0.1875 L 24.094865,2.5 z m -15.1875005,6.28125 3.0312505,6.4375 c 0.935284,-1.290181 2.084819,-2.439716 3.375,-3.375 L 8.9073645,8.78125 z m 30.4062505,0 -6.4375,3.0625 c 1.290181,0.935284 2.439716,2.084819 3.375,3.375 l 3.0625,-6.4375 z m -30.0312505,12.8125 -6.6875,2.375 6.6875,2.375 C 9.1622018,25.57952 9.0948645,24.797813 9.0948645,24 c 0,-0.819375 0.060886,-1.622429 0.1875,-2.40625 z M 38.907365,21.625 c 0.123368,0.774034 0.1875,1.566406 0.1875,2.375 0,0.808594 -0.06413,1.600966 -0.1875,2.375 l 6.6875,-2.375 -6.6875,-2.375 z M 11.938615,32.78125 8.9073645,39.1875 15.313615,36.15625 c -1.290181,-0.935284 -2.439716,-2.084819 -3.375,-3.375 z m 24.3125,0 c -0.926461,1.27801 -2.068633,2.413549 -3.34375,3.34375 l 6.40625,3.0625 -3.0625,-6.40625 z m -14.53125,6.03125 2.375,6.6875 2.375,-6.6875 C 25.695831,38.935868 24.903459,39 24.094865,39 c -0.808594,0 -1.600966,-0.06413 -2.375,-0.1875 z"
       id="path7492"
       inkscape:connector-curvature="0" />
    <path
       inkscape:connector-curvature="0"
       style="fill:#808080;fill-opacity:1;stroke:#000000;stroke-width:1;stroke-linecap:butt;stroke-linejoin:miter;stroke-miterlimit:2;stroke-opacity:1;stroke-dasharray:none;stroke-dashoffset:0"
       d="m 31.51,22.4855 c -2.27083,0 -4.10991,1.55028 -4.71875,3.625 -0.69323,-0.36383 -1.44451,-0.625 -2.28125,-0.625 -2.76,0 -5.00001,2.23999 -5,5 0,0.57893 0.16252,1.1077 0.34375,1.625 -1.37347,0.77074 -2.34375,2.189 -2.34375,3.875 0,2.484 2.016,4.50001 4.5,4.5 0.17713,0 18.82287,0 19,0 2.48399,0 4.5,-2.016 4.5,-4.5 0,-1.686 -0.97028,-3.10426 -2.34375,-3.875 0.18124,-0.51729 0.34375,-1.04608 0.34375,-1.625 0,-2.76 -2.24,-4.99999 -5,-5 -0.83674,0 -1.58802,0.26117 -2.28125,0.625 -0.60884,-2.07472 -2.44792,-3.625 -4.71875,-3.625 z"
       id="path6670"
       sodipodi:nodetypes="ccsscsssscsscc" />
    <path
       inkscape:connector-curvature="0"
       style="fill:#c4c5c2;fill-opacity:1;stroke:none"
       d="m 31.51,22.9855 c -2.18972,0 -3.7236,1.33577 -4.39555,3.84352 -0.66846,-0.34362 -1.54759,-0.83335 -2.35445,-0.83335 -2.71651,0 -4.75514,1.93882 -4.75513,4.54554 0,0.54677 0.26721,1.33344 0.44196,1.82201 -1.32443,0.72795 -2.43683,1.8905 -2.43683,3.37255 0,2.34605 1.54617,4.25009 4.33928,4.25009 0.17081,0 18.15064,0 18.32144,0 2.77101,0 4.33928,-1.90404 4.33928,-4.25009 0,-1.59237 -1.1124,-2.66669 -2.43683,-3.39464 0.17476,-0.48856 0.46407,-1.25316 0.46407,-1.79992 0,-2.60671 -2.11581,-4.56763 -4.77723,-4.56764 -0.80687,0 -1.64181,0.48974 -2.31027,0.83336 C 35.30089,24.38539 33.69973,22.9855 31.51,22.9855 z"
       id="path6672"
       sodipodi:nodetypes="ccsscsssscsscc" />
    <path
       inkscape:connector-curvature="0"
       style="fill:#000000;fill-opacity:1;fill-rule:evenodd;stroke:none"
       d="m 43.9664,30.65154 c -0.002,2.68456 -3.26926,3.71395 -3.26926,3.71395 0,0 2.34874,-1.62595 2.33685,-3.70501 0,0 0.93241,-0.009 0.93241,-0.009 z"
       id="path6704"
       sodipodi:nodetypes="ccss" />
  </g>
</svg>
