<?xml version="1.0" encoding="UTF-8" standalone="no"?>
<!-- Created with Inkscape (http://www.inkscape.org/) -->

<svg
   xmlns:dc="http://purl.org/dc/elements/1.1/"
   xmlns:cc="http://creativecommons.org/ns#"
   xmlns:rdf="http://www.w3.org/1999/02/22-rdf-syntax-ns#"
   xmlns:svg="http://www.w3.org/2000/svg"
   xmlns="http://www.w3.org/2000/svg"
   xmlns:xlink="http://www.w3.org/1999/xlink"
   xmlns:sodipodi="http://sodipodi.sourceforge.net/DTD/sodipodi-0.dtd"
   xmlns:inkscape="http://www.inkscape.org/namespaces/inkscape"
   id="svg1306"
   sodipodi:docname="condition_shower.svg"
   height="48px"
   sodipodi:version="0.32"
   width="48px"
   version="1.1"
   inkscape:version="0.48.4 r9939">
  <defs
     id="defs1308">
    <linearGradient
       id="linearGradient11348"
       y2="-425.29"
       xlink:href="#linearGradient6549"
       gradientUnits="userSpaceOnUse"
       x2="-130.61"
       gradientTransform="matrix(1.0709,0,-0.53544,0.67486,287.51,77.508)"
       y1="-425.29"
       x1="-137.5" />
    <linearGradient
       id="linearGradient11346"
       y2="-425.29"
       xlink:href="#linearGradient6549"
       gradientUnits="userSpaceOnUse"
       x2="-130.61"
       gradientTransform="matrix(1.0709,0,-0.53544,0.67486,277.51,77.508)"
       y1="-425.29"
       x1="-137.5" />
    <linearGradient
       id="linearGradient11344"
       y2="-425.29"
       xlink:href="#linearGradient6549"
       gradientUnits="userSpaceOnUse"
       x2="-130.61"
       gradientTransform="matrix(1.0884,0,-0.54422,0.67484,265.98,77.501)"
       y1="-425.29"
       x1="-137.5" />
    <linearGradient
       id="linearGradient13352"
       y2="-436.83"
       xlink:href="#linearGradient6549"
       gradientUnits="userSpaceOnUse"
       x2="288.9"
       y1="-441.23"
       x1="284.8" />
    <linearGradient
       id="linearGradient13350"
       y2="-436.71"
       xlink:href="#linearGradient6549"
       gradientUnits="userSpaceOnUse"
       x2="289.77"
       y1="-439.48"
       x1="286.67" />
    <linearGradient
       id="linearGradient13347"
       y2="-431.92"
       xlink:href="#linearGradient6549"
       gradientUnits="userSpaceOnUse"
       x2="279.98"
       gradientTransform="translate(-35,207)"
       y1="-437.11"
       x1="275.94" />
    <linearGradient
       id="linearGradient13345"
       y2="-436.44"
       xlink:href="#linearGradient6549"
       gradientUnits="userSpaceOnUse"
       x2="289.39"
       y1="-439.94"
       x1="285.94" />
    <linearGradient
       id="linearGradient13343"
       y2="-436.14"
       xlink:href="#linearGradient6549"
       gradientUnits="userSpaceOnUse"
       x2="289.85"
       y1="-441.29"
       x1="286.51" />
    <linearGradient
       id="linearGradient13341"
       y2="-436.32"
       xlink:href="#linearGradient6549"
       gradientUnits="userSpaceOnUse"
       x2="289.68"
       y1="-439.75"
       x1="287.52" />
    <linearGradient
       id="linearGradient13339"
       y2="-431.97"
       xlink:href="#linearGradient6549"
       gradientUnits="userSpaceOnUse"
       x2="285.03"
       gradientTransform="translate(-34,207)"
       y1="-441.05"
       x1="271.02" />
    <linearGradient
       id="linearGradient6549">
      <stop
         id="stop6551"
         stop-color="#fff"
         offset="0" />
      <stop
         id="stop6553"
         stop-color="#fff"
         stop-opacity="0"
         offset="1" />
    </linearGradient>
    <linearGradient
       id="linearGradient13323"
       y2="-382.65"
       gradientUnits="userSpaceOnUse"
       x2="245.65"
       y1="-388.47"
       x1="238">
      <stop
         id="stop8400"
         stop-color="#fff"
         offset="0" />
      <stop
         id="stop8402"
         stop-color="#fff"
         stop-opacity="0"
         offset="1" />
    </linearGradient>
    <linearGradient
       id="linearGradient13321"
       y2="-386.96"
       gradientUnits="userSpaceOnUse"
       x2="235.26"
       y1="-390.44"
       x1="230.88">
      <stop
         id="stop8317"
         stop-color="#fff"
         offset="0" />
      <stop
         id="stop8319"
         stop-color="#fff"
         stop-opacity="0"
         offset="1" />
    </linearGradient>
    <linearGradient
       id="linearGradient13319"
       y2="-385.35"
       gradientUnits="userSpaceOnUse"
       x2="252.7"
       y1="-391.31"
       x1="246.74">
      <stop
         id="stop8383"
         stop-color="#fff"
         offset="0" />
      <stop
         id="stop8385"
         stop-color="#fff"
         stop-opacity="0"
         offset="1" />
    </linearGradient>
    <linearGradient
       id="linearGradient13317"
       y2="-388.55"
       gradientUnits="userSpaceOnUse"
       x2="245.83"
       y1="-393.41"
       x1="240.07">
      <stop
         id="stop8333"
         stop-color="#fff"
         offset="0" />
      <stop
         id="stop8335"
         stop-color="#fff"
         stop-opacity="0"
         offset="1" />
    </linearGradient>
    <linearGradient
       id="linearGradient13315"
       y2="-379.27"
       gradientUnits="userSpaceOnUse"
       x2="266.36"
       gradientTransform="translate(69,155)"
       y1="-392.31"
       x1="228.5">
      <stop
         id="stop8304"
         stop-color="#fff"
         offset="0" />
      <stop
         id="stop8306"
         stop-color="#fff"
         stop-opacity="0"
         offset="1" />
    </linearGradient>
    <linearGradient
       inkscape:collect="always"
       xlink:href="#linearGradient6549"
       id="linearGradient3835"
       gradientUnits="userSpaceOnUse"
       gradientTransform="translate(-34,207)"
       x1="271.02"
       y1="-441.05"
       x2="285.03"
       y2="-431.97" />
    <linearGradient
       inkscape:collect="always"
       xlink:href="#linearGradient6549"
       id="linearGradient3837"
       gradientUnits="userSpaceOnUse"
       x1="287.52"
       y1="-439.75"
       x2="289.68"
       y2="-436.32" />
    <linearGradient
       inkscape:collect="always"
       xlink:href="#linearGradient6549"
       id="linearGradient3839"
       gradientUnits="userSpaceOnUse"
       x1="286.51"
       y1="-441.29"
       x2="289.85"
       y2="-436.14" />
    <linearGradient
       inkscape:collect="always"
       xlink:href="#linearGradient6549"
       id="linearGradient3841"
       gradientUnits="userSpaceOnUse"
       x1="285.94"
       y1="-439.94"
       x2="289.39"
       y2="-436.44" />
    <linearGradient
       inkscape:collect="always"
       xlink:href="#linearGradient6549"
       id="linearGradient3843"
       gradientUnits="userSpaceOnUse"
       gradientTransform="translate(-35,207)"
       x1="275.94"
       y1="-437.11"
       x2="279.98"
       y2="-431.92" />
    <linearGradient
       inkscape:collect="always"
       xlink:href="#linearGradient6549"
       id="linearGradient3845"
       gradientUnits="userSpaceOnUse"
       x1="286.67"
       y1="-439.48"
       x2="289.77"
       y2="-436.71" />
    <linearGradient
       inkscape:collect="always"
       xlink:href="#linearGradient6549"
       id="linearGradient3847"
       gradientUnits="userSpaceOnUse"
       x1="284.8"
       y1="-441.23"
       x2="288.9"
       y2="-436.83" />
    <linearGradient
       inkscape:collect="always"
       xlink:href="#linearGradient13315"
       id="linearGradient3906"
       gradientUnits="userSpaceOnUse"
       gradientTransform="translate(69,155)"
       x1="228.5"
       y1="-392.31"
       x2="266.36"
       y2="-379.27" />
    <linearGradient
       inkscape:collect="always"
       xlink:href="#linearGradient13317"
       id="linearGradient3908"
       gradientUnits="userSpaceOnUse"
       x1="240.07"
       y1="-393.41"
       x2="245.83"
       y2="-388.55" />
    <linearGradient
       inkscape:collect="always"
       xlink:href="#linearGradient13319"
       id="linearGradient3910"
       gradientUnits="userSpaceOnUse"
       x1="246.74"
       y1="-391.31"
       x2="252.7"
       y2="-385.35" />
    <linearGradient
       inkscape:collect="always"
       xlink:href="#linearGradient13321"
       id="linearGradient3912"
       gradientUnits="userSpaceOnUse"
       x1="230.88"
       y1="-390.44"
       x2="235.26"
       y2="-386.96" />
    <linearGradient
       inkscape:collect="always"
       xlink:href="#linearGradient13323"
       id="linearGradient3914"
       gradientUnits="userSpaceOnUse"
       x1="238"
       y1="-388.47"
       x2="245.65"
       y2="-382.65" />
    <linearGradient
       inkscape:collect="always"
       xlink:href="#linearGradient6549"
       id="linearGradient3916"
       gradientUnits="userSpaceOnUse"
       gradientTransform="translate(-34,207)"
       x1="271.02"
       y1="-441.05"
       x2="285.03"
       y2="-431.97" />
    <linearGradient
       inkscape:collect="always"
       xlink:href="#linearGradient6549"
       id="linearGradient3918"
       gradientUnits="userSpaceOnUse"
       x1="287.52"
       y1="-439.75"
       x2="289.68"
       y2="-436.32" />
    <linearGradient
       inkscape:collect="always"
       xlink:href="#linearGradient6549"
       id="linearGradient3920"
       gradientUnits="userSpaceOnUse"
       x1="286.51"
       y1="-441.29"
       x2="289.85"
       y2="-436.14" />
    <linearGradient
       inkscape:collect="always"
       xlink:href="#linearGradient6549"
       id="linearGradient3922"
       gradientUnits="userSpaceOnUse"
       x1="285.94"
       y1="-439.94"
       x2="289.39"
       y2="-436.44" />
    <linearGradient
       inkscape:collect="always"
       xlink:href="#linearGradient6549"
       id="linearGradient3924"
       gradientUnits="userSpaceOnUse"
       gradientTransform="translate(-35,207)"
       x1="275.94"
       y1="-437.11"
       x2="279.98"
       y2="-431.92" />
    <linearGradient
       inkscape:collect="always"
       xlink:href="#linearGradient6549"
       id="linearGradient3926"
       gradientUnits="userSpaceOnUse"
       x1="286.67"
       y1="-439.48"
       x2="289.77"
       y2="-436.71" />
    <linearGradient
       inkscape:collect="always"
       xlink:href="#linearGradient6549"
       id="linearGradient3928"
       gradientUnits="userSpaceOnUse"
       x1="284.8"
       y1="-441.23"
       x2="288.9"
       y2="-436.83" />
    <linearGradient
       inkscape:collect="always"
       xlink:href="#linearGradient6549"
       id="linearGradient3930"
       gradientUnits="userSpaceOnUse"
       gradientTransform="translate(-34,207)"
       x1="271.02"
       y1="-441.05"
       x2="285.03"
       y2="-431.97" />
    <linearGradient
       inkscape:collect="always"
       xlink:href="#linearGradient6549"
       id="linearGradient3932"
       gradientUnits="userSpaceOnUse"
       x1="287.52"
       y1="-439.75"
       x2="289.68"
       y2="-436.32" />
    <linearGradient
       inkscape:collect="always"
       xlink:href="#linearGradient6549"
       id="linearGradient3934"
       gradientUnits="userSpaceOnUse"
       x1="286.51"
       y1="-441.29"
       x2="289.85"
       y2="-436.14" />
    <linearGradient
       inkscape:collect="always"
       xlink:href="#linearGradient6549"
       id="linearGradient3936"
       gradientUnits="userSpaceOnUse"
       x1="285.94"
       y1="-439.94"
       x2="289.39"
       y2="-436.44" />
    <linearGradient
       inkscape:collect="always"
       xlink:href="#linearGradient6549"
       id="linearGradient3938"
       gradientUnits="userSpaceOnUse"
       gradientTransform="translate(-35,207)"
       x1="275.94"
       y1="-437.11"
       x2="279.98"
       y2="-431.92" />
    <linearGradient
       inkscape:collect="always"
       xlink:href="#linearGradient6549"
       id="linearGradient3940"
       gradientUnits="userSpaceOnUse"
       x1="286.67"
       y1="-439.48"
       x2="289.77"
       y2="-436.71" />
    <linearGradient
       inkscape:collect="always"
       xlink:href="#linearGradient6549"
       id="linearGradient3942"
       gradientUnits="userSpaceOnUse"
       x1="284.8"
       y1="-441.23"
       x2="288.9"
       y2="-436.83" />
    <linearGradient
       inkscape:collect="always"
       xlink:href="#linearGradient6549"
       id="linearGradient3994"
       gradientUnits="userSpaceOnUse"
       gradientTransform="translate(-34,207)"
       x1="271.02"
       y1="-441.05"
       x2="285.03"
       y2="-431.97" />
    <linearGradient
       inkscape:collect="always"
       xlink:href="#linearGradient6549"
       id="linearGradient3996"
       gradientUnits="userSpaceOnUse"
       x1="287.52"
       y1="-439.75"
       x2="289.68"
       y2="-436.32" />
    <linearGradient
       inkscape:collect="always"
       xlink:href="#linearGradient6549"
       id="linearGradient3998"
       gradientUnits="userSpaceOnUse"
       x1="286.51"
       y1="-441.29"
       x2="289.85"
       y2="-436.14" />
    <linearGradient
       inkscape:collect="always"
       xlink:href="#linearGradient6549"
       id="linearGradient4000"
       gradientUnits="userSpaceOnUse"
       x1="285.94"
       y1="-439.94"
       x2="289.39"
       y2="-436.44" />
    <linearGradient
       inkscape:collect="always"
       xlink:href="#linearGradient6549"
       id="linearGradient4002"
       gradientUnits="userSpaceOnUse"
       gradientTransform="translate(-35,207)"
       x1="275.94"
       y1="-437.11"
       x2="279.98"
       y2="-431.92" />
    <linearGradient
       inkscape:collect="always"
       xlink:href="#linearGradient6549"
       id="linearGradient4004"
       gradientUnits="userSpaceOnUse"
       x1="286.67"
       y1="-439.48"
       x2="289.77"
       y2="-436.71" />
    <linearGradient
       inkscape:collect="always"
       xlink:href="#linearGradient6549"
       id="linearGradient4006"
       gradientUnits="userSpaceOnUse"
       x1="284.8"
       y1="-441.23"
       x2="288.9"
       y2="-436.83" />
    <linearGradient
       inkscape:collect="always"
       xlink:href="#linearGradient6549"
       id="linearGradient4013"
       gradientUnits="userSpaceOnUse"
       gradientTransform="matrix(0.99968,0,0,1,-264.88104,455.9839)"
       x1="275.94"
       y1="-437.11"
       x2="279.98"
       y2="-431.92" />
    <linearGradient
       inkscape:collect="always"
       xlink:href="#linearGradient13315"
       id="linearGradient4028"
       gradientUnits="userSpaceOnUse"
       gradientTransform="translate(69,155)"
       x1="228.5"
       y1="-392.31"
       x2="266.36"
       y2="-379.27" />
    <linearGradient
       inkscape:collect="always"
       xlink:href="#linearGradient13317"
       id="linearGradient4030"
       gradientUnits="userSpaceOnUse"
       x1="240.07"
       y1="-393.41"
       x2="245.83"
       y2="-388.55" />
    <linearGradient
       inkscape:collect="always"
       xlink:href="#linearGradient13319"
       id="linearGradient4032"
       gradientUnits="userSpaceOnUse"
       x1="246.74"
       y1="-391.31"
       x2="252.7"
       y2="-385.35" />
    <linearGradient
       inkscape:collect="always"
       xlink:href="#linearGradient13321"
       id="linearGradient4034"
       gradientUnits="userSpaceOnUse"
       x1="230.88"
       y1="-390.44"
       x2="235.26"
       y2="-386.96" />
    <linearGradient
       inkscape:collect="always"
       xlink:href="#linearGradient13323"
       id="linearGradient4036"
       gradientUnits="userSpaceOnUse"
       x1="238"
       y1="-388.47"
       x2="245.65"
       y2="-382.65" />
    <linearGradient
       inkscape:collect="always"
       xlink:href="#linearGradient6549"
       id="linearGradient4055"
       gradientUnits="userSpaceOnUse"
       gradientTransform="translate(-34,207)"
       x1="271.02"
       y1="-441.05"
       x2="285.03"
       y2="-431.97" />
    <linearGradient
       inkscape:collect="always"
       xlink:href="#linearGradient6549"
       id="linearGradient4057"
       gradientUnits="userSpaceOnUse"
       x1="287.52"
       y1="-439.75"
       x2="289.68"
       y2="-436.32" />
    <linearGradient
       inkscape:collect="always"
       xlink:href="#linearGradient6549"
       id="linearGradient4059"
       gradientUnits="userSpaceOnUse"
       x1="286.51"
       y1="-441.29"
       x2="289.85"
       y2="-436.14" />
    <linearGradient
       inkscape:collect="always"
       xlink:href="#linearGradient6549"
       id="linearGradient4061"
       gradientUnits="userSpaceOnUse"
       x1="285.94"
       y1="-439.94"
       x2="289.39"
       y2="-436.44" />
    <linearGradient
       inkscape:collect="always"
       xlink:href="#linearGradient6549"
       id="linearGradient4063"
       gradientUnits="userSpaceOnUse"
       gradientTransform="translate(-35,207)"
       x1="275.94"
       y1="-437.11"
       x2="279.98"
       y2="-431.92" />
    <linearGradient
       inkscape:collect="always"
       xlink:href="#linearGradient6549"
       id="linearGradient4065"
       gradientUnits="userSpaceOnUse"
       x1="286.67"
       y1="-439.48"
       x2="289.77"
       y2="-436.71" />
    <linearGradient
       inkscape:collect="always"
       xlink:href="#linearGradient6549"
       id="linearGradient4067"
       gradientUnits="userSpaceOnUse"
       x1="284.8"
       y1="-441.23"
       x2="288.9"
       y2="-436.83" />
    <linearGradient
       inkscape:collect="always"
       xlink:href="#linearGradient6549"
       id="linearGradient4074"
       gradientUnits="userSpaceOnUse"
       gradientTransform="matrix(0.99968,0,0,1,-249.87184,459.9999)"
       x1="275.94"
       y1="-437.11"
       x2="279.98"
       y2="-431.92" />
    <linearGradient
       inkscape:collect="always"
       xlink:href="#linearGradient6549"
       id="linearGradient4089"
       gradientUnits="userSpaceOnUse"
       gradientTransform="matrix(1.0884,0,-0.54422,0.67484,265.98,77.501)"
       x1="-137.5"
       y1="-425.29"
       x2="-130.61"
       y2="-425.29" />
    <linearGradient
       inkscape:collect="always"
       xlink:href="#linearGradient6549"
       id="linearGradient4091"
       gradientUnits="userSpaceOnUse"
       gradientTransform="matrix(1.0709,0,-0.53544,0.67486,277.51,77.508)"
       x1="-137.5"
       y1="-425.29"
       x2="-130.61"
       y2="-425.29" />
    <linearGradient
       inkscape:collect="always"
       xlink:href="#linearGradient6549"
       id="linearGradient4093"
       gradientUnits="userSpaceOnUse"
       gradientTransform="matrix(1.0709,0,-0.53544,0.67486,287.51,77.508)"
       x1="-137.5"
       y1="-425.29"
       x2="-130.61"
       y2="-425.29" />
    <linearGradient
       inkscape:collect="always"
       xlink:href="#linearGradient6549"
       id="linearGradient4100"
       gradientUnits="userSpaceOnUse"
       gradientTransform="matrix(1.0884,0,-0.54422,0.67484,265.98,77.501)"
       x1="-137.5"
       y1="-425.29"
       x2="-130.61"
       y2="-425.29" />
    <linearGradient
       inkscape:collect="always"
       xlink:href="#linearGradient6549"
       id="linearGradient4102"
       gradientUnits="userSpaceOnUse"
       gradientTransform="matrix(1.0709,0,-0.53544,0.67486,277.51,77.508)"
       x1="-137.5"
       y1="-425.29"
       x2="-130.61"
       y2="-425.29" />
    <linearGradient
       inkscape:collect="always"
       xlink:href="#linearGradient6549"
       id="linearGradient4104"
       gradientUnits="userSpaceOnUse"
       gradientTransform="matrix(1.0709,0,-0.53544,0.67486,287.51,77.508)"
       x1="-137.5"
       y1="-425.29"
       x2="-130.61"
       y2="-425.29" />
    <linearGradient
       inkscape:collect="always"
       xlink:href="#linearGradient6549"
       id="linearGradient4107"
       gradientUnits="userSpaceOnUse"
       gradientTransform="matrix(1.0709,0,-0.53544,0.6745968,-52.47,322.40914)"
       x1="-137.5"
       y1="-425.29"
       x2="-130.61"
       y2="-425.29" />
    <linearGradient
       inkscape:collect="always"
       xlink:href="#linearGradient6549"
       id="linearGradient4110"
       gradientUnits="userSpaceOnUse"
       gradientTransform="matrix(1.0940179,0,-0.54699876,0.69870298,-64.502468,332.90764)"
       x1="-137.5"
       y1="-425.29"
       x2="-130.61"
       y2="-425.29" />
    <linearGradient
       inkscape:collect="always"
       xlink:href="#linearGradient6549"
       id="linearGradient4113"
       gradientUnits="userSpaceOnUse"
       gradientTransform="matrix(1.0884,0,-0.54422,0.67457681,-74,322.40214)"
       x1="-137.5"
       y1="-425.29"
       x2="-130.61"
       y2="-425.29" />
  </defs>
  <sodipodi:namedview
     id="base"
     bordercolor="#666666"
     pagecolor="#ffffff"
     showgrid="true"
     borderopacity="1.0"
     inkscape:zoom="18.645833"
     inkscape:cx="12.73743"
     inkscape:cy="24"
     inkscape:window-width="1855"
     inkscape:window-height="1056"
     inkscape:window-x="65"
     inkscape:window-y="24"
     inkscape:window-maximized="1"
     inkscape:current-layer="svg1306" />
  <metadata
     id="metadata1311">
    <rdf:RDF>
      <cc:Work
         rdf:about="">
        <dc:format>image/svg+xml</dc:format>
        <dc:type
           rdf:resource="http://purl.org/dc/dcmitype/StillImage" />
        <dc:title>weather-showers</dc:title>
        <dc:date>January 2006</dc:date>
        <dc:creator>
          <cc:Agent>
            <dc:title>Ryan collier (pseudo)</dc:title>
          </cc:Agent>
        </dc:creator>
        <dc:publisher>
          <cc:Agent>
            <dc:title>http://www.tango-project.org</dc:title>
          </cc:Agent>
        </dc:publisher>
        <dc:source>http://www.pseudocode.org</dc:source>
        <dc:subject>
          <rdf:Bag>
            <rdf:li>weather</rdf:li>
            <rdf:li>appplet</rdf:li>
            <rdf:li>notify</rdf:li>
          </rdf:Bag>
        </dc:subject>
        <cc:license
           rdf:resource="http://creativecommons.org/licenses/by-sa/2.0/" />
      </cc:Work>
      <cc:License
         rdf:about="http://creativecommons.org/licenses/by-sa/2.0/">
        <cc:permits
           rdf:resource="http://web.resource.org/cc/Reproduction" />
        <cc:permits
           rdf:resource="http://web.resource.org/cc/Distribution" />
        <cc:requires
           rdf:resource="http://web.resource.org/cc/Notice" />
        <cc:requires
           rdf:resource="http://web.resource.org/cc/Attribution" />
        <cc:permits
           rdf:resource="http://web.resource.org/cc/DerivativeWorks" />
        <cc:requires
           rdf:resource="http://web.resource.org/cc/ShareAlike" />
      </cc:License>
    </rdf:RDF>
  </metadata>
  <rect
     id="rect6086"
     ry="1.5179003"
     rx="2.3596001"
     transform="matrix(1,0,-0.60051987,0.79960983,0,0)"
     height="17.509005"
     width="32.962002"
     stroke-miterlimit="0"
     y="35.661884"
     x="33.706451"
     style="fill:#c4c5c2;stroke:#000000;stroke-width:1.08140261000000004;stroke-miterlimit:0;fill-opacity:1;stroke-opacity:1;stroke-dasharray:none" />
  <path
     style="fill:#000000;fill-opacity:1"
     inkscape:connector-curvature="0"
     d="M 24.54032,2 C 21.771206,2 19.431955,3.57 18.132371,5.81 17.192672,5.34 16.172998,5 15.04336,5 11.184595,5 8.0456,8.14 8.0456,12 c 0,3.86 3.138995,7 6.99776,7 2.419226,0 4.428582,-1.32 5.688179,-3.19 1.129639,0.69 2.389235,1.19 3.808781,1.19 0.909709,0 1.74944,-0.23 2.559181,-0.53 0.509837,0.87 1.179622,1.58 1.99936,2.16 0,0.13 -0.05998,0.24 -0.05998,0.37 0,3.86 3.138995,7 6.99776,7 3.858765,0 6.99776,-3.14 6.99776,-7 0,-2.37 -1.259597,-4.36 -3.059021,-5.62 0,-0.14 0.05998,-0.25 0.05998,-0.38 0,-3.86 -3.138995,-7 -6.99776,-7 C 32.417798,6 31.857978,6.22 31.28816,6.38 30.098541,3.82 27.549357,2 24.54032,2 z"
     id="path13217" />
  <path
     inkscape:connector-curvature="0"
     style="fill:#888a85;fill-opacity:1"
     d="M 24.54032,3 C 21.76121,3 19.411962,4.76 18.482259,7.22 17.492576,6.51 16.352941,6 15.04336,6 11.734419,6 9.04528,8.69 9.04528,12 c 0,3.31 2.689139,6 5.99808,6 2.429222,0 4.488563,-1.46 5.438259,-3.53 1.119642,0.92 2.4992,1.53 4.058701,1.53 1.069658,0 2.039347,-0.32 2.939059,-0.78 0.399872,1 1.099648,1.79 1.939379,2.44 -0.189939,0.59 -0.379878,1.19 -0.379878,1.84 0,3.59 2.909069,6.5 6.49792,6.5 3.588851,0 6.49792,-2.91 6.49792,-6.5 0,-2.36 -1.329574,-4.33 -3.21897,-5.47 0.05998,-0.35 0.21993,-0.66 0.21993,-1.03 0,-3.31 -2.689139,-6 -5.99808,-6 C 32.187872,7 31.368134,7.18 30.628371,7.5 29.778643,4.91 27.419398,3 24.54032,3 z"
     id="path13219" />
  <path
     style="fill:none;stroke:#000000;stroke-width:0.96699999999999997;stroke-linecap:round;stroke-linejoin:miter;stroke-opacity:1;stroke-miterlimit:4;stroke-dasharray:none"
     d="m 20.667168,32.64233 -7.010314,9.530983"
     id="path3081"
     inkscape:connector-curvature="0" />
  <path
     inkscape:connector-curvature="0"
     id="path3851"
     d="m 31.548607,32.916198 -7.267046,9.358665"
     style="fill:none;stroke:#000000;stroke-width:0.96699999999999997;stroke-linecap:round;stroke-linejoin:miter;stroke-opacity:1;stroke-miterlimit:4;stroke-dasharray:none" />
  <path
     style="fill:#888a85;stroke:#000000;stroke-width:1.00003993999999996;stroke-miterlimit:2;stroke-opacity:1"
     inkscape:connector-curvature="0"
     stroke-miterlimit="2"
     sodipodi:nodetypes="ccsscsssscsscc"
     d="m 31.53808,14.4999 c -2.269274,0 -4.108685,1.55 -4.71849,3.63 -0.689779,-0.37 -1.439539,-0.63 -2.27927,-0.63 -2.759117,0 -4.9984,2.24 -4.9984,5 0,0.58 0.159949,1.11 0.339891,1.63 -1.369561,0.77 -2.339251,2.18 -2.339251,3.87 0,2.48 2.019354,4.5 4.49856,4.5 h 18.99392 c 2.479206,0 4.49856,-2.02 4.49856,-4.5 0,-1.69 -0.96969,-3.1 -2.339251,-3.87 0.179942,-0.52 0.339891,-1.05 0.339891,-1.63 0,-2.76 -2.239283,-5 -4.9984,-5 -0.839731,0 -1.589491,0.26 -2.27927,0.63 -0.609805,-2.08 -2.449216,-3.63 -4.71849,-3.63 z"
     id="path13249" />
  <path
     inkscape:connector-curvature="0"
     style="fill:#888a85;fill-opacity:1"
     sodipodi:nodetypes="ccsscsssscsscc"
     d="m 31.53808,14.9999 c -2.189299,0 -3.71881,1.34 -4.398592,3.84 -0.659789,-0.34 -1.539507,-0.83 -2.349248,-0.83 -2.71913,0 -4.758477,1.94 -4.758477,4.55 0,0.54 0.269914,1.33 0.449856,1.82 -1.329574,0.73 -2.439219,1.89 -2.439219,3.37 0,2.35 1.549504,4.25 4.338611,4.25 h 18.314138 c 2.769113,0 4.338611,-1.9 4.338611,-4.25 0,-1.59 -1.109645,-2.67 -2.439219,-3.39 0.179942,-0.49 0.469849,-1.26 0.469849,-1.8 0,-2.61 -2.119321,-4.57 -4.77847,-4.57 -0.809741,0 -1.639475,0.49 -2.309261,0.83 -0.649792,-2.42 -2.24928,-3.82 -4.438579,-3.82 z"
     id="path13251" />
  <path
     style="fill:#888a85"
     sodipodi:cx="288.375"
     sodipodi:cy="-437.59375"
     transform="matrix(1.0562619,0,0,1.0566,-280.06018,484.8599)"
     d="m 291.6875,-437.59375 a 3.3125,3.3125 0 1 1 -6.625,0 3.3125,3.3125 0 1 1 6.625,0 z"
     sodipodi:type="arc"
     sodipodi:ry="3.3125"
     sodipodi:rx="3.3125"
     id="path13265" />
  <path
     style="opacity:0.47778003;fill:url(#linearGradient4061)"
     sodipodi:cx="288.375"
     sodipodi:cy="-437.59375"
     transform="matrix(1.0562619,0,0,1.0566,-280.06018,484.8599)"
     d="m 291.6875,-437.59375 a 3.3125,3.3125 0 1 1 -6.625,0 3.3125,3.3125 0 1 1 6.625,0 z"
     sodipodi:type="arc"
     sodipodi:ry="3.3125"
     sodipodi:rx="3.3125"
     id="path13267" />
  <path
     style="fill:#000000;fill-rule:evenodd;fill-opacity:1"
     inkscape:connector-curvature="0"
     sodipodi:nodetypes="ccss"
     d="m 43.994093,22.6699 c -0.01,2.68 -3.268954,3.71 -3.268954,3.71 0,0 2.349248,-1.63 2.329255,-3.7 0,0 0.939699,-0.01 0.939699,-0.01 z"
     id="path13275" />
  <path
     style="fill:#888a85;stroke:#000000;stroke-width:1.00003993999999996;stroke-miterlimit:2;stroke-opacity:1"
     inkscape:connector-curvature="0"
     stroke-miterlimit="2"
     sodipodi:nodetypes="ccsscsssscsscc"
     d="m 16.52888,10.4839 c -2.269274,0 -4.108685,1.55 -4.71849,3.63 -0.689779,-0.37 -1.439539,-0.63 -2.27927,-0.63 -2.7591168,0 -4.9984,2.24 -4.9984,5 0,0.58 0.1599488,1.11 0.3398912,1.63 -1.3695616,0.77 -2.3392512,2.18 -2.3392512,3.87 0,2.48 2.0193536,4.5 4.49856,4.5 h 18.99392 c 2.479206,0 4.49856,-2.02 4.49856,-4.5 0,-1.69 -0.96969,-3.1 -2.339251,-3.87 0.179942,-0.52 0.339891,-1.05 0.339891,-1.63 0,-2.76 -2.239283,-5 -4.9984,-5 -0.839731,0 -1.589491,0.26 -2.27927,0.63 -0.609805,-2.08 -2.449216,-3.63 -4.71849,-3.63 z"
     id="path13283" />
  <path
     inkscape:connector-curvature="0"
     style="fill:#888a85;fill-opacity:1"
     sodipodi:nodetypes="ccsscsssscsscc"
     d="m 16.52888,10.9839 c -2.189299,0 -3.71881,1.34 -4.398592,3.84 -0.659789,-0.34 -1.539507,-0.83 -2.349248,-0.83 -2.7191296,0 -4.7584768,1.94 -4.7584768,4.55 0,0.54 0.2699136,1.33 0.449856,1.82 -1.3295744,0.73 -2.4392192,1.89 -2.4392192,3.37 0,2.35 1.549504,4.25 4.3386112,4.25 H 25.685949 c 2.769113,0 4.338611,-1.9 4.338611,-4.25 0,-1.59 -1.109645,-2.67 -2.439219,-3.39 0.179942,-0.49 0.469849,-1.26 0.469849,-1.8 0,-2.61 -2.119321,-4.57 -4.77847,-4.57 -0.809741,0 -1.639475,0.49 -2.309261,0.83 -0.649792,-2.42 -2.24928,-3.82 -4.438579,-3.82 z"
     id="path13285" />
  <path
     style="fill:#000000;fill-rule:evenodd;fill-opacity:1"
     inkscape:connector-curvature="0"
     sodipodi:nodetypes="ccss"
     d="m 28.984893,18.6539 c -0.01,2.68 -3.268954,3.71 -3.268954,3.71 0,0 2.349248,-1.63 2.329255,-3.7 0,0 0.939699,-0.01 0.939699,-0.01 z"
     id="path13309" />
</svg>
